<?xml version="1.0" encoding="UTF-8" standalone="no" ?>
<!DOCTYPE svg PUBLIC "-//W3C//DTD SVG 1.1//EN" "http://www.w3.org/Graphics/SVG/1.1/DTD/svg11.dtd">
<svg xmlns="http://www.w3.org/2000/svg" xmlns:xlink="http://www.w3.org/1999/xlink" version="1.1" width="1080" height="1080" viewBox="0 0 1080 1080" xml:space="preserve">
<desc>Created with Fabric.js 5.2.4</desc>
<defs>
</defs>
<g transform="matrix(1 0 0 1 540 540)" id="292bcc43-91e6-4f96-a78a-b3e5d15ef29e"  >
<rect style="stroke: none; stroke-width: 1; stroke-dasharray: none; stroke-linecap: butt; stroke-dashoffset: 0; stroke-linejoin: miter; stroke-miterlimit: 4; fill: rgb(255,255,255); fill-rule: nonzero; opacity: 1; visibility: hidden;" vector-effect="non-scaling-stroke"  x="-540" y="-540" rx="0" ry="0" width="1080" height="1080" />
</g>
<g transform="matrix(1 0 0 1 540 540)" id="c7411268-d148-4652-9ab5-338b64737c78"  >
</g>
<g transform="matrix(1 0 0 1 540 540)" id="6bbaaad8-a602-4b4f-a78b-bbae5488539c"  >
<path style="stroke: rgb(0,0,0); stroke-width: 0; stroke-dasharray: none; stroke-linecap: butt; stroke-dashoffset: 0; stroke-linejoin: miter; stroke-miterlimit: 4; fill: rgb(255,255,255); fill-rule: nonzero; opacity: 1;" vector-effect="non-scaling-stroke"  transform=" translate(-12, -12)" d="M 17.75 20.75 C 17.5974 20.747 17.4487 20.702 17.32 20.62 L 12 16.91 L 6.68 20.62 C 6.56249 20.6915 6.42757 20.7294 6.29 20.7294 C 6.15243 20.7294 6.01751 20.6915 5.9 20.62 C 5.78491 20.5607 5.68741 20.4722 5.61722 20.3634 C 5.54703 20.2546 5.50661 20.1293 5.5 20 L 5.5 6 C 5.5 5.27065 5.78973 4.57118 6.30546 4.05546 C 6.82118 3.53973 7.52065 3.25 8.25 3.25 L 15.75 3.25 C 16.4793 3.25 17.1788 3.53973 17.6945 4.05546 C 18.2103 4.57118 18.5 5.27065 18.5 6 L 18.5 20 C 18.5005 20.1362 18.4634 20.2698 18.3929 20.3863 C 18.3223 20.5027 18.2209 20.5974 18.1 20.66 C 17.9927 20.7189 17.8724 20.7498 17.75 20.75 Z M 12 15.25 C 12.1532 15.2484 12.3033 15.2938 12.43 15.38 L 17 18.56 L 17 6 C 17 5.66848 16.8683 5.35054 16.6339 5.11612 C 16.3995 4.8817 16.0815 4.75 15.75 4.75 L 8.25 4.75 C 7.91848 4.75 7.60054 4.8817 7.36612 5.11612 C 7.1317 5.35054 7 5.66848 7 6 L 7 18.56 L 11.57 15.38 C 11.6967 15.2938 11.8468 15.2484 12 15.25 Z" stroke-linecap="round" />
</g>
</svg>